<svg width="202" height="44" viewBox="0 0 202 44" fill="none" xmlns="http://www.w3.org/2000/svg">
<path fill-rule="evenodd" clip-rule="evenodd" d="M22 0C9.86857 0 0 9.86857 0 22C0 34.1314 9.86857 44 22 44C34.1314 44 44 34.1314 44 22C44 9.86857 34.1314 0 22 0ZM22 1.04762C27.5167 1.04762 32.5361 3.18075 36.2782 6.66703H7.72182C11.4639 3.18075 16.4833 1.04762 22 1.04762ZM42.9524 22C42.9524 27.5189 40.8175 32.5402 37.3287 36.2827V7.71727C40.8175 11.4598 42.9524 16.4811 42.9524 22ZM22 42.9524C16.4833 42.9524 11.4639 40.8192 7.72178 37.3329H36.2782C32.5361 40.8192 27.5167 42.9524 22 42.9524ZM6.66703 7.72182V36.2782C3.18075 32.5361 1.04762 27.5167 1.04762 22C1.04762 16.4833 3.18075 11.4639 6.66703 7.72182ZM7.71465 36.2853H36.2811V7.71465H7.71465V36.2853Z" fill="black"/>
<path d="M57.64 13.883V30.0791H58.9139V13.883H57.64Z" fill="black"/>
<path d="M68.2629 30.0749V13.883H69.5619L78.5086 25.851C78.605 25.9599 78.7223 26.1191 78.8648 26.3245L78.9261 26.4129C79.0493 26.5908 79.1767 26.7747 79.3132 26.9614L79.427 27.1207L79.4792 27.1941C79.5715 27.3237 79.6565 27.4431 79.7364 27.5523H79.8328V13.883H81.1067V30.0791H80.0926L70.9322 17.7801C70.8233 17.6376 70.6347 17.3862 70.3665 17.0258C70.141 16.7228 69.9333 16.4405 69.7408 16.179L69.6332 16.0327H69.5368V30.0749H68.2629Z" fill="black"/>
<path d="M88.3772 13.8788L94.6084 30.075H96.3139L102.545 13.8788H101.175L96.712 25.7294C96.603 26.027 96.4773 26.3664 96.3349 26.7435C96.1924 27.1249 96.0583 27.4978 95.9326 27.8666C95.8069 28.2353 95.6895 28.5622 95.5806 28.8471H95.4171C95.3208 28.5622 95.2076 28.2353 95.0735 27.8666L95.0698 27.8563C94.937 27.4868 94.8041 27.1172 94.6712 26.7435C94.5371 26.3664 94.4072 26.027 94.2815 25.7294L89.7474 13.8788H88.3772Z" fill="black"/>
<path d="M109.811 13.883H111.085V30.0791H109.811V13.883Z" fill="black"/>
<path d="M123.778 30.1462C124.587 30.2887 125.425 30.3599 126.293 30.3599C127.55 30.3599 128.656 30.1965 129.624 29.8654C130.575 29.5344 131.321 29.0232 131.866 28.3317C132.406 27.6403 132.679 26.7561 132.679 25.6875C132.679 24.95 132.52 24.3256 132.197 23.8228C131.874 23.3157 131.443 22.9009 130.898 22.5698C130.353 22.2388 129.741 21.9664 129.067 21.7443C128.388 21.5222 127.692 21.3252 126.976 21.1534C126.259 20.9774 125.559 20.7972 124.885 20.6087C124.206 20.4201 123.598 20.198 123.053 19.9466C122.509 19.6951 122.077 19.3725 121.754 18.9786C121.432 18.5847 121.272 18.0902 121.272 17.491C121.272 16.9839 121.453 16.5271 121.805 16.1081C122.157 15.6932 122.718 15.358 123.481 15.1066C124.243 14.8551 125.241 14.7294 126.469 14.7294C127.29 14.7294 128.027 14.8551 128.69 15.1066C129.347 15.358 129.875 15.71 130.269 16.1584C130.663 16.6068 130.86 17.1473 130.86 17.7759V18.2704H132.134V17.9854C132.134 17.2144 131.983 16.5523 131.686 16.0033C131.384 15.4544 130.969 14.9976 130.433 14.6456C129.901 14.2894 129.28 14.0254 128.581 13.8536C127.877 13.6818 127.118 13.5938 126.301 13.5938C125.119 13.5938 124.122 13.6986 123.313 13.9123C122.5 14.1218 121.851 14.4151 121.365 14.7839C120.874 15.1569 120.522 15.5927 120.3 16.0955C120.078 16.5984 119.969 17.1348 119.969 17.7005C119.969 18.4087 120.133 19.0079 120.455 19.494C120.778 19.9801 121.205 20.3824 121.742 20.6967C122.278 21.011 122.882 21.275 123.56 21.4887C124.235 21.7024 124.935 21.8952 125.66 22.067C126.381 22.2388 127.08 22.4231 127.759 22.6201C128.438 22.8171 129.042 23.0475 129.578 23.3157C130.114 23.5839 130.542 23.9275 130.864 24.3424C131.187 24.7614 131.35 25.2852 131.35 25.9138C131.35 26.5424 131.204 27.0578 130.915 27.4601C130.621 27.8624 130.253 28.1809 129.804 28.4155C129.356 28.6544 128.882 28.8304 128.388 28.9477C127.889 29.0693 127.428 29.1447 127.005 29.174C126.582 29.2033 126.267 29.2201 126.062 29.2201C125.115 29.2201 124.248 29.0986 123.451 28.8555C122.655 28.6125 122.022 28.2353 121.549 27.7241C121.075 27.2129 120.841 26.5717 120.841 25.8007C120.841 25.7085 120.845 25.5995 120.853 25.4822C120.858 25.3649 120.87 25.2685 120.887 25.1889H119.588C119.571 25.2978 119.563 25.3816 119.563 25.4361V25.6372C119.563 26.5801 119.747 27.3553 120.116 27.963C120.485 28.5706 120.987 29.0525 121.616 29.4045C122.249 29.7565 122.965 30.0037 123.778 30.1462Z" fill="black"/>
<path d="M141.19 13.883H142.464V30.0791H141.19V13.883Z" fill="black"/>
<path fill-rule="evenodd" clip-rule="evenodd" d="M151.813 13.883V30.0833H159.632C160.608 30.0833 161.463 29.9492 162.205 29.681C162.947 29.4129 163.529 28.9603 163.952 28.3233C164.376 27.6822 164.589 26.8148 164.589 25.7127C164.589 24.8327 164.451 24.1203 164.174 23.5755C163.898 23.035 163.538 22.6117 163.089 22.3142C162.641 22.0167 162.15 21.803 161.614 21.6772V21.5809C162.134 21.4049 162.582 21.1367 162.959 20.7763C163.336 20.4159 163.626 19.9717 163.831 19.4437C164.036 18.9199 164.137 18.3458 164.137 17.734C164.137 16.9294 163.965 16.2422 163.617 15.6681C163.274 15.0898 162.766 14.6498 162.096 14.3439C161.426 14.038 160.604 13.883 159.628 13.883H151.813ZM159.603 21.1995H153.082V15.0102H159.812C160.726 15.0102 161.463 15.2574 162.021 15.7435C162.578 16.2338 162.859 16.9881 162.859 18.0106C162.859 18.6559 162.712 19.2174 162.423 19.6993C162.13 20.1812 161.74 20.55 161.254 20.8098C160.768 21.0696 160.214 21.1995 159.603 21.1995ZM160.005 28.9435H153.086V22.331H159.862C160.604 22.331 161.229 22.4399 161.74 22.662C162.251 22.8841 162.641 23.2403 162.909 23.7264C163.177 24.2125 163.311 24.8494 163.311 25.6372C163.311 26.865 163.01 27.7241 162.402 28.2102C161.794 28.7005 160.998 28.9435 160.005 28.9435Z" fill="black"/>
<path d="M172.798 30.0749V13.883H174.072V28.9435H182.051V30.0749H172.798Z" fill="black"/>
<path d="M189.229 13.883V30.0708H201.65V28.9393H190.507V22.331H200.468V21.1995H190.507V15.0144H201.507V13.883H189.229Z" fill="black"/>
</svg>
