<svg version="1.1" xmlns="http://www.w3.org/2000/svg" xml:space="preserve" width="531.64" height="120" viewBox="0 0 531.64 120"><title>La Trobe University - Melbourne, Australia</title><defs>
<clipPath id="clipPath200">
<path d="m0,0,595.28,0,0,841.89h-595.28v-841.89z"/>
</clipPath>
<clipPath id="clipPath258">
<path d="m0,0,595.28,0,0,841.89h-595.28v-841.89z"/>
</clipPath>
<clipPath id="clipPath296">
<path d="m0,0,595.28,0,0,841.89h-595.28v-841.89z"/>
</clipPath>
</defs>
<g transform="matrix(2.9071035,0,0,-2.9071035,-40.810216,2370.4806)">
<g transform="matrix(1.3884439,0,0,1.3884439,0,-297.16733)">
<g clip-path="url(#clipPath200)">
<g transform="translate(42.1936,793.7875)">
<path fill-rule="nonzero" fill="#231f20" d="M0,0c-0.103-0.231-0.383-0.405-0.383-0.405,0.602,0.019,0.383,0.405,0.383,0.405"/>
</g>
<g transform="translate(43.9199,793.2465)">
<path fill-rule="nonzero" fill="#231f20" d="m0,0c-0.084,0.825-0.529,0.893-0.965,1.071-0.432,0.174-1.214,0.397-1.506,0.568-0.29,0.17-0.585,0.228-0.931,0.284-0.347,0.057-1.219,0-1.617,0.063-0.397,0.062-1.018,0.181-1.148,0.092-0.133-0.092-0.136-0.564-1.116-0.866-0.604-0.186-1.369-0.373-1.941-0.538-0.011,0.286,0.032,1.162,0.78,2.414,0.92,1.546,1.177,2.062,0.776,2.468-0.444,0.447-2.271-0.522-2.271-0.522s0.038,0.176,0.062,0.445c0.532,0.314,2.557,1.442,3.384,0.98,0.959-0.535-0.215-2.02-0.322-2.157-0.109-0.137-1.413-2.089-1.674-2.879l0.546,0.149s1.213,1.946,1.629,2.462c0.417,0.516,1.39,1.997,0.614,2.649-0.762,0.644-2.031,0.398-4.165-0.98,0.024,0.707-0.117,1.769-1.089,2.138-1.666,0.629-7.108,0.2-13.288-4.74,0,0-2.407-1.694-4.713-4.087-2.186-2.267-4.226-4.625-3.574-4.972,0.716-0.379,2.566,1.687,2.784,1.9,0,0,1.95-0.116,4.382,1.966,0,0,1.335-0.85,3.185-0.35,0,0-0.734-1.816,1.434-1.665,0,0-0.183-0.884,0.548-0.735,0,0-4.28-2.504-4.207-2.604,0.075-0.101,2.193,0.835,3.23,1.359,0.622,0.316,0.997,0.617,1.495,0.702,0.496,0.083,2.273,0.165,4.76,1.525,2.488,1.361,3.283,3.117,3.399,4.379,0,0-0.633-0.574-0.791-0.556-0.157,0.02,0.101,0.67,0.165,1.091,0.063,0.422,0.566,2.049,0.1,1.854-0.466-0.196-1.94-1.654-2.471-0.719-0.391,0.688,0.685,1.978,0.685,1.978s-3.362-1.87-3.983-0.908c-0.547,0.852,0.38,1.522,0.38,1.522s-3.712-1.454-7.515-4.026c-3.8-2.573-6.092-5.73-6.834-5.856-0.74-0.124,5.971,7.887,13.209,10.776,3.909,1.56,6.53,1.763,7.585,1.273,0.619-0.287,0.543-1.075,0.543-1.267,0,0-0.544-5.172,0.368-6.465,0,0,0.779,0.434,1.432,0.719l-0.155,0.279c0.085,0.156,0.332,0.236,0.692,0.347,0.484,0.153,1.316,0.218,1.76,0.542,0.442,0.324,0.404,0.452,0.621,0.532,0,0,0.905-0.159,1.378-0.109,0.472,0.05,0.913,0.098,1.188,0.009,0.277-0.087,1.251-0.6,1.831-0.707,0.58-0.109,0.646-0.153,0.836-0.492,0.228-0.404,0.231-0.811,0.231-0.811-0.007,0.004-0.013,0.009-0.02,0.013-0.335,0.205-1.226,0.179-1.226,0.179,0.221-0.024,0.441-0.118,0.116-0.197-0.324-0.08-1.277-0.381-1.277-0.381,0.249,0.341,0.815,0.563,0.836,0.574,0.021,0.012-1.143-0.016-1.143-0.016,0.262,0.181,0.389,0.624,0.434,0.822,0.107,0.015,0.206,0.045,0.303,0.078,0.317,0.108-0.035,0.191-0.713,0.216-0.678,0.026-1.221,0.126-1.221,0.126l-0.169-0.297c0.064,0.036,0.358,0.125,0.615,0.09,0.012-0.13,0.073-0.431,0.418-0.464,0.141-0.016,0.254,0.011,0.342,0.053-0.103-0.231-0.362-0.614-0.921-0.503-0.384,0.078-0.581,0.457-0.581,0.457s-0.408-0.837-0.797-1.041c-0.385-0.206-2.384-1.118-3.205-2.129-0.821-1.013-1.147-1.354-1.784-1.526-0.634-0.17-0.706-0.186-0.786-0.275-0.083-0.09-0.756-1.171-2.911-2.316-0.69-0.366-0.974-0.355-1.091-0.238-0.188,0.192,0.055,0.498-0.076,0.492-0.235-0.013-0.39-0.092-0.902-0.31-0.703-0.299-1.139-0.551-1.684-0.596-0.496-0.041-0.978,0.111-1.012,0.839,0,0-0.025,0.017-0.374-0.11-0.35-0.124-2.37-1.053-3.101-1.062-0.395-0.006,0.331,0.907,0.331,0.907s-1.915-1.144-2.333-1.336c-0.412-0.193-1.596-0.706-1.124,0.516,0,0-2.73-1.71-6.855-2.985-1.327-0.412-1.644-0.233-1.634-0.558,0.003-0.155,0.151-0.21,0.349-0.226,0.286-0.019,0.798-0.024,1.272,0.043,0.887,0.124,2.54,0.474,3.775,0.871,1.897,0.604,2.462,1.259,3.777,0.894,1.67-0.464,2.504,0.228,2.504,0.228s0.251-0.453,1.28-0.436c0,0,0.946-0.716,2.662-0.44,0,0,0.665-0.348,1.69-0.336,0.063-0.374,0.154-1.011,0.118-1.491-0.063-0.835-0.004-1.071,0.465-0.66,0,0,0.504-1.44,0.532-1.8,0.029-0.358,0.023-0.584,0.212-0.607,0.193-0.02,0.325,0,0.325,0s0.131-0.324,0.591-0.452c0,0,0.04-0.14-0.684-0.423-0.359-0.141-0.691-0.48-0.563-0.644,0,0,0.298-0.005,0.622,0.015,0,0,0.421,0.405,0.932,0.118,0.243-0.133,0.283-0.329,0.246-0.483-0.013-0.059-0.04-0.121-0.086-0.188-0.024-0.035-0.078-0.108-0.136-0.211-0.089-0.15-0.189-0.348-0.153-0.417,0.064-0.119,0.314-0.466-0.382-0.554,0,0,0.035-0.139,0.252-0.127,0.214,0.011,0.752,0.353,0.779,0.529,0,0,0.255,0.287,0.42,0.698,0.162,0.407,0.182,0.473,0.235,0.407,0.054-0.062,0.243-0.513,0.094-0.864-0.112-0.268-0.209-0.323-0.121-0.442,0.01-0.017,0.063-0.053,0.148-0.114,0.06-0.041,0.064-0.144-0.103-0.313-0.292-0.293,0.504,0.056,0.618,0.333,0,0,0.251,0.29,0.147,1.399,0,0-0.017,0.117,0.127,0.031,0.142-0.089,0.36-0.324,0.368-0.529,0.007-0.205-0.093-0.392,0.048-0.456,0.141-0.063,0.143-0.284,0.091-0.417s-0.36-0.175-0.287-0.197c0.072-0.023,0.633-0.027,0.731,0.629,0.1,0.657-0.18,1.404-0.94,1.868-0.759,0.463-1.009,0.695-1.127,3.48-0.04,0.971,0.242,2.105,0.445,2.863h0.001c0.254,0.921,0.563,1.439,0.58,1.334,0.029-0.182-0.22-0.884-0.242-1.234,0,0,2.242,1.174,2.906,1.736,0.673,0.566,1.001,1,1.023,1.034,0.025,0.034,0.581,0.58,0.798,2.037l0.852,1.672s0.342-0.563,0.628-0.223c0.283,0.342,0.875,1.306,0.965,1.316,0,0,0.14-0.434,0.344-0.31,0.205,0.125,0.284,0.596,0.806,0.845,0.523,0.25,1.435,0.524,1.435,0.524s2.065,0.51,2.136,0.355c0.073-0.154,0.077-0.513,0.077-0.513s0.314,0.475,0.227,1.301m-12.695-15.825s0.108-0.231,0.338-0.373c0.165-0.104,0.613-0.329,0.81-0.533,0.075-0.078,0.155-0.196,0.112-0.225-0.042-0.03-0.149,0.01-0.374,0.219-0.224,0.205-0.357,0.088-0.374-0.048-0.014-0.109,0.046-0.489,0.009-0.734-0.038-0.247-0.162-0.285-0.152-0.007,0.01,0.274-0.144,0.909-0.415,0.884-0.208-0.02-0.317-0.212-0.376-0.339-0.066-0.134-0.166-0.265-0.134-0.152,0,0,0.028,0.278-0.119,0.592-0.149,0.315-0.191,0.348-0.361,0.374-0.168,0.023-0.183,0.168,0.107,0.294,0.293,0.127,0.429,0.195,0.929,0.048"/>
</g>
<g transform="translate(19.2766,782.938)">
<path fill-rule="nonzero" fill="#231f20" d="m0,0c-0.56,0.214-1.372,0.009-2.178-0.355-0.803-0.364-4.664-1.659-6.872-1.522,0,0,0.325-0.501,1.677-0.713,0,0-0.113-0.752,1.216-0.464,1.328,0.286,6.099,2.426,7.102,2.997,0,0-0.383-0.155-0.945,0.057"/>
</g>
<g transform="translate(22.7188,782.7617)">
<path fill-rule="nonzero" fill="#231f20" d="m0,0c-0.032,0-0.725-0.06-1.194,0.372l-4.728-2.443s-2.161-0.998-1.76-1.254c0,0,0.674-0.384,2.186,0.202,1.512,0.584,5.761,2.948,5.761,2.948s-0.253,0.175-0.265,0.175"/>
</g>
<g transform="translate(24.7259,782.3271)">
<path fill-rule="nonzero" fill="#231f20" d="m0,0s-0.609-0.053-1.079,0.188c0,0-2.55-1.623-3.032-1.883-0.485-0.262-1.246-0.57-0.405-0.706,0.841-0.134,1.735-0.046,3.168,1.189,1.278,1.103,1.348,1.212,1.348,1.212"/>
</g>
<g transform="translate(32.8327,783.5522)">
<path fill-rule="nonzero" fill="#231f20" d="m0,0c-0.504-0.267-1.128-0.546-1.128-0.546s-0.23-0.897-0.17-2.537c0.075-2.125,0.304-2.719,0.997-3.12,0.986-0.567,1.164-1.432,1.157-1.704-0.005-0.273-0.033-0.344,0.055-0.442,0.088-0.1,0.082-0.155-0.024-0.341-0.104-0.185-0.399-0.233-0.278-0.248,0.122-0.019,0.463-0.031,0.627,0.347,0.161,0.377,0.353,0.579,0.033,1.386,0,0,0.372,0.06,0.515-0.63,0.091-0.442-0.046-0.602,0.304-0.733,0,0,0.053-0.158-0.147-0.38-0.155-0.173,0.063-0.129,0.199-0.064,0.234,0.114,0.44,0.438,0.404,0.814-0.029,0.359-0.244,0.821-0.395,1.048,0,0,0.261-0.057,0.404-0.314,0.142-0.256,0.119-0.392,0.474-0.371,0,0,0.154-0.119,0.165-0.363,0.01-0.244-0.293-0.418-0.194-0.402,0.101,0.018,0.77,0.269,0.263,1.108,0,0-0.085,0.399-0.471,0.605-0.387,0.205-0.873,0.77-1.766,0.927,0,0-0.41,0.431-0.49,0.686,0,0,0.05,0.111,0.07,0.209,0.024,0.097-0.578,3.158,0.879,5.901,0,0-0.98-0.568-1.483-0.836m0.922-6.171c0.502,0.013,1.622-0.744,1.602-0.835-0.018-0.091-0.417,0.106-0.534,0.154-0.12,0.047-0.285,0.062-0.15-0.123,0.136-0.185,0.308-0.623,0.3-0.713-0.008-0.089-0.09-0.015-0.09-0.015-0.151,0.429-0.534,0.788-0.746,0.871-0.21,0.082-0.275,0.031-0.287-0.114-0.013-0.147,0.061-0.434-0.102-0.023-0.167,0.409-0.558,0.747-0.673,0.825-0.118,0.079-0.063,0.161-0.063,0.161,0.051,0.058,0.145,0.067,0.243,0.058,0.247-0.023,0.5-0.246,0.5-0.246"/>
</g>
<g transform="translate(23.5446,775.3248)">
<path fill-rule="nonzero" fill="#231f20" d="M0,0,1.074-0.437c-0.096-0.624,0.49-1.022,0.49-1.022-0.064-0.227-0.265-0.407-0.384-0.497-0.068-0.045-0.119-0.057-0.105-0.076,0.008-0.009,0.061,0.007,0.099,0.022,1.026,0.397,1.123,1.339,1.078,1.996-0.042,0.625-0.483,0.971-0.483,0.971-0.014-0.004,1.726-0.239,2.355-0.113,0.626,0.127-0.007,0.156-0.007,0.156-1.305-0.014-2.759,0.509-3.498,0.269-0.989-0.324-1.035-1.287-1.053-1.451-0.117-0.909,0.385-1.408,0.614-1.584,0.045-0.034,0.103-0.083,0.111-0.075,0.009,0.009-0.04,0.078-0.057,0.108-0.537,1.003-0.234,1.733-0.234,1.733"/>
</g>
<g transform="translate(41.5116,773.985)">
<path fill-rule="nonzero" fill="#231f20" d="M0,0c-1.004-0.081-2.126,0.142-2.14,0.137-0.012-0.006-0.151-0.095-0.151-0.095,0.784-0.347,1.66-0.28,1.862-0.316,0.202-0.033-0.041-0.119-0.041-0.119-1.086-0.891-2.888-0.623-5.54-0.623s-5.431-0.752-6.345-0.904c-0.366-0.062-0.673,0.26-0.93,0.392-0.353,0.18-0.608,0.266-0.608,0.266,3.118,0.661,4.893,0.854,8.225,1.082,2.013,0.136,3.714-0.147,3.926,1.376,0.063,0.459-0.039,0.834-0.217,1.132-0.315,0.536-0.834,0.813-1.06,0.911-0.062,0.029-0.209,0.023-0.248,0.009-1.055-0.357-2.132-0.443-2.332-0.47-0.209-0.026-0.096-0.088-0.096-0.088,1.125-0.077,2.032,0.19,2.324,0.29,0.064,0.02,0.141,0.028,0.205,0.01,0.213-0.065,0.711-0.285,0.964-0.985,0.434-1.193-0.496-1.468-1.29-1.508-0.795-0.042-4.151-0.397-5.425-0.464-1.273-0.067-4.628-0.529-5.845-0.711-0.938-0.141-2.133-0.225-2.133-0.225-0.325-0.005,0.207-0.153,1.481-0.347,1.274-0.192,1.611-0.688,2.131-1.021,0.234-0.148,0.68-0.15,1.104-0.108,0.526,0.054,1.645,0.369,2.359,0.496,1.394,0.246,3.791,0.503,7.115,0.398,1.834-0.057,2.478,0.469,3.099,1.235,0.293,0.364-0.394,0.25-0.394,0.25"/>
</g>
<g transform="translate(49.9636,777.0917)">
<path fill-rule="nonzero" fill="#231f20" d="m0,0,0,3.746,1.444,0,0-3.71c0-1.068,0.534-1.624,1.416-1.624,0.88,0,1.414,0.536,1.414,1.576v3.758h1.442v-3.701c0-1.988-1.114-2.964-2.878-2.964-1.761,0-2.838,0.983-2.838,2.919"/>
</g>
</g>
</g>
<g transform="matrix(1.3884439,0,0,1.3884439,80.99654,786.98213)">
<path fill-rule="nonzero" fill="#231f20" d="m0,0,1.33,0,3.075-4.037,0,4.037,1.425,0,0-6.562-1.228,0-3.177,4.172,0-4.172h-1.425v6.562z"/>
</g>
<path fill-rule="nonzero" fill="#231f20" d="m92.927,786.98,2.0021,0,0-9.111-2.0021,0,0,9.111z"/>
<g transform="matrix(1.3884439,0,0,1.3884439,97.828228,786.98213)">
<path fill-rule="nonzero" fill="#231f20" d="M0,0,1.593,0,3.308-4.62,5.025,0,6.581,0,3.928-6.562,2.653-6.562,0,0z"/>
</g>
<g transform="matrix(1.3884439,0,0,1.3884439,109.89131,786.98213)">
<path fill-rule="nonzero" fill="#231f20" d="m0,0,4.948,0,0-1.283-3.516,0,0-1.331,3.093,0,0-1.285-3.093,0,0-1.377,3.562,0,0-1.286h-4.994v6.562z"/>
</g>
<g transform="matrix(1.3884439,0,0,1.3884439,0,-297.16733)">
<g clip-path="url(#clipPath258)">
<g transform="translate(86.4342,780.8378)">
<path fill-rule="nonzero" fill="#231f20" d="m0,0,2.999,0c0.835,0,1.483-0.235,1.914-0.664,0.365-0.367,0.561-0.882,0.561-1.501v-0.019c0-1.056-0.57-1.726-1.405-2.032l1.604-2.346h-1.689l-1.404,2.101h-1.135v-2.101h-1.445v6.562zm2.907-3.185c0.703,0,1.106,0.375,1.106,0.927v0.019c0,0.619-0.431,0.936-1.133,0.936h-1.435v-1.882h1.462z"/>
</g>
<g transform="translate(93.8379,775.2322)">
<path fill-rule="nonzero" fill="#231f20" d="M0,0,0.855,1.023c0.591-0.487,1.209-0.797,1.959-0.797,0.59,0,0.946,0.235,0.946,0.62v0.018c0,0.364-0.225,0.552-1.324,0.832-1.319,0.34-2.171,0.705-2.171,2.006v0.019c0,1.19,0.954,1.979,2.297,1.979,0.955,0,1.77-0.302,2.435-0.835l-0.75-1.086c-0.581,0.403-1.154,0.648-1.705,0.648-0.555,0-0.844-0.256-0.844-0.575v-0.017c0-0.432,0.281-0.571,1.414-0.862,1.33-0.347,2.081-0.825,2.081-1.968v-0.02c0-1.303-0.992-2.033-2.407-2.033-0.995,0-1.997,0.346-2.786,1.048"/>
</g>
</g>
</g>
<path fill-rule="nonzero" fill="#231f20" d="m140.69,786.98,2.0021,0,0-9.111-2.0021,0,0,9.111z"/>
<g transform="matrix(1.3884439,0,0,1.3884439,148.69956,785.13605)">
<path fill-rule="nonzero" fill="#231f20" d="m0,0-1.997,0,0,1.33,5.436,0,0-1.33-1.996,0,0-5.232h-1.443v5.232z"/>
</g>
<g transform="matrix(1.3884439,0,0,1.3884439,158.9485,781.4632)">
<path fill-rule="nonzero" fill="#231f20" d="m0,0-2.519,3.975,1.685,0,1.566-2.632,1.593,2.632,1.64,0-2.521-3.944,0-2.618h-1.444v2.587z"/>
</g>
<g transform="matrix(1.3884439,0,0,1.3884439,69.371654,811.40833)">
<path fill-rule="nonzero" fill="#ed1c24" d="m0,0,2.657,0,0-9.677,6.477,0-0.991-2.397-8.143,0v12.074z"/>
</g>
<g transform="matrix(1.3884439,0,0,1.3884439,94.861401,801.66062)">
<path fill-rule="nonzero" fill="#ed1c24" d="M0,0-1.606,3.916-3.208,0,0,0zm-2.795,7.021,2.447,0,5.177-12.074-2.776,0-1.105,2.706-5.106,0-1.103-2.706-2.708,0,5.174,12.074z"/>
</g>
<g transform="matrix(1.3884439,0,0,1.3884439,113.7609,808.00761)">
<path fill-rule="nonzero" fill="#ed1c24" d="m0,0-3.792,0,0,2.449,10.24,0,0-2.449-3.792,0,0-9.625h-2.656v9.625z"/>
</g>
<g transform="matrix(1.3884439,0,0,1.3884439,0,-297.16733)">
<g clip-path="url(#clipPath296)">
<g transform="translate(96.6818,792.5637)">
<path fill-rule="nonzero" fill="#ed1c24" d="M0,0c0.658,0,1.159,0.155,1.509,0.465,0.352,0.311,0.526,0.725,0.526,1.244v0.033c0,0.577-0.184,1.007-0.554,1.294-0.364,0.287-0.877,0.43-1.532,0.43h-2.641v-3.466h2.692zm-5.347,5.867,5.52,0c1.531,0,2.701-0.41,3.52-1.226,0.688-0.692,1.034-1.611,1.034-2.759v-0.036c0-0.977-0.24-1.774-0.716-2.388-0.478-0.618-1.102-1.068-1.872-1.354l2.95-4.311h-3.105l-2.586,3.861h-0.038-2.052v-3.861h-2.655v12.074z"/>
</g>
<g transform="translate(110.2237,788.5983)">
<path fill-rule="nonzero" fill="#ed1c24" d="m0,0c0.529,0,1.015,0.097,1.464,0.293,0.451,0.194,0.831,0.463,1.149,0.81,0.314,0.346,0.562,0.746,0.741,1.201,0.177,0.451,0.265,0.936,0.265,1.452v0.039c0,0.516-0.088,1.002-0.265,1.464-0.179,0.459-0.432,0.863-0.76,1.21-0.329,0.345-0.714,0.617-1.164,0.819-0.448,0.198-0.938,0.3-1.466,0.3-0.54,0-1.033-0.095-1.476-0.293s-0.821-0.466-1.137-0.81-0.564-0.745-0.742-1.199c-0.179-0.453-0.269-0.942-0.269-1.459v-0.032c0-0.517,0.09-1.007,0.269-1.468,0.178-0.462,0.43-0.864,0.76-1.205,0.326-0.347,0.711-0.623,1.154-0.824,0.443-0.199,0.936-0.298,1.477-0.298m-0.036-2.451c-0.931,0-1.788,0.165-2.571,0.493-0.782,0.326-1.458,0.769-2.026,1.329-0.571,0.554-1.013,1.211-1.328,1.965-0.316,0.753-0.474,1.56-0.474,2.42v0.039c0,0.861,0.16,1.67,0.482,2.422,0.324,0.753,0.77,1.414,1.338,1.983,0.57,0.569,1.246,1.018,2.033,1.345,0.789,0.329,1.649,0.492,2.582,0.492,0.931,0,1.787-0.163,2.567-0.492,0.783-0.327,1.46-0.771,2.029-1.326,0.567-0.558,1.012-1.216,1.329-1.966,0.315-0.755,0.473-1.562,0.473-2.426v-0.032c0-0.866-0.162-1.673-0.484-2.422-0.322-0.756-0.767-1.419-1.337-1.988-0.569-0.569-1.247-1.017-2.034-1.343-0.788-0.328-1.645-0.493-2.579-0.493"/>
</g>
<g transform="translate(125.2449,788.6844)">
<path fill-rule="nonzero" fill="#ed1c24" d="m0,0c0.587,0,1.047,0.106,1.38,0.318,0.334,0.213,0.5,0.541,0.5,0.989v0.037c0,0.405-0.155,0.72-0.465,0.958-0.311,0.236-0.811,0.355-1.499,0.355h-3.07v-2.657h3.154zm-0.705,4.862c0.585,0,1.051,0.102,1.397,0.305,0.344,0.197,0.517,0.523,0.517,0.972v0.037c0,0.398-0.15,0.708-0.45,0.918-0.3,0.217-0.73,0.321-1.295,0.321h-2.618v-2.553h2.449zm-5.037,4.884,5.595,0c1.389,0,2.439-0.359,3.15-1.071,0.551-0.553,0.827-1.237,0.827-2.053v-0.035c0-0.344-0.041-0.649-0.129-0.913-0.085-0.265-0.199-0.502-0.342-0.716-0.144-0.211-0.308-0.398-0.498-0.561-0.188-0.163-0.388-0.299-0.607-0.414,0.696-0.263,1.248-0.622,1.648-1.077s0.601-1.084,0.601-1.889v-0.035c0-0.553-0.107-1.036-0.321-1.448-0.211-0.415-0.515-0.761-0.91-1.037-0.398-0.277-0.873-0.481-1.428-0.618-0.561-0.142-1.175-0.207-1.851-0.207h-5.735v12.074z"/>
</g>
</g>
</g>
<g transform="matrix(1.3884439,0,0,1.3884439,184.17042,811.40833)">
<path fill-rule="nonzero" fill="#ed1c24" d="m0,0,9.089,0,0-2.365-6.467,0,0-2.448,4.729,0,0-2.365-4.729,0,0-2.536,6.556,0,0-2.36-9.178,0v12.074z"/>
</g>
</g>
</svg>
